HIERARCHY
ROOT Hips
{
	OFFSET -0.001795 -0.223333 0.028219
	CHANNELS 6 Xposition Yposition Zposition Zrotation Yrotation Xrotation 
	JOINT LeftUpLeg
	{
		OFFSET 0.069520 -0.091406 -0.006815
		CHANNELS 3 Zrotation Yrotation Xrotation
		JOINT LeftLeg
		{
			OFFSET 0.034277 -0.375199 -0.004496
			CHANNELS 3 Zrotation Yrotation Xrotation
			JOINT LeftFoot
			{
				OFFSET -0.013596 -0.397961 -0.043693
				CHANNELS 3 Zrotation Yrotation Xrotation
				JOINT LeftToe
				{
					OFFSET 0.026358 -0.055791 0.119288
					CHANNELS 3 Zrotation Yrotation Xrotation
					End Site
					{
						OFFSET 0.000000 0.000000 0.000000
					}
				}
			}
		}
	}
	JOINT RightUpLeg
	{
		OFFSET -0.067670 -0.090522 -0.004320
		CHANNELS 3 Zrotation Yrotation Xrotation
		JOINT RightLeg
		{
			OFFSET -0.038290 -0.382569 -0.008850
			CHANNELS 3 Zrotation Yrotation Xrotation
			JOINT RightFoot
			{
				OFFSET 0.015774 -0.398415 -0.042312
				CHANNELS 3 Zrotation Yrotation Xrotation
				JOINT RightToe
				{
					OFFSET -0.025372 -0.048144 0.123348
					CHANNELS 3 Zrotation Yrotation Xrotation
					End Site
					{
						OFFSET 0.000000 0.000000 0.000000
					}
				}
			}
		}
	}
	JOINT Spine
	{
		OFFSET -0.002533 0.108963 -0.026696
		CHANNELS 3 Zrotation Yrotation Xrotation
		JOINT Spine1
		{
			OFFSET 0.005487 0.135180 0.001092
			CHANNELS 3 Zrotation Yrotation Xrotation
			JOINT Spine2
			{
				OFFSET 0.001457 0.052922 0.025425
				CHANNELS 3 Zrotation Yrotation Xrotation
				JOINT Neck
				{
					OFFSET -0.002778 0.213870 -0.042857
					CHANNELS 3 Zrotation Yrotation Xrotation
					JOINT Head
					{
						OFFSET 0.005152 0.064970 0.051349
						CHANNELS 3 Zrotation Yrotation Xrotation
						End Site
						{
							OFFSET 0.000000 0.000000 0.000000
						}
					}
				}
				JOINT LeftShoulder
				{
					OFFSET 0.078845 0.121749 -0.034090
					CHANNELS 3 Zrotation Yrotation Xrotation
					JOINT LeftArm
					{
						OFFSET 0.090977 0.030469 -0.008868
						CHANNELS 3 Zrotation Yrotation Xrotation
						JOINT LeftForeArm
						{
							OFFSET 0.259612 -0.012772 -0.027456
							CHANNELS 3 Zrotation Yrotation Xrotation
							JOINT LeftHand
							{
								OFFSET 0.249234 0.008986 -0.001171
								CHANNELS 3 Zrotation Yrotation Xrotation
								End Site
								{
									OFFSET 0.000000 0.000000 0.000000
								}
							}
						}
					}
				}
				JOINT RightShoulder
				{
					OFFSET -0.081759 0.118833 -0.038615
					CHANNELS 3 Zrotation Yrotation Xrotation
					JOINT RightArm
					{
						OFFSET -0.096012 0.032551 -0.009143
						CHANNELS 3 Zrotation Yrotation Xrotation
						JOINT RightForeArm
						{
							OFFSET -0.253742 -0.013329 -0.021401
							CHANNELS 3 Zrotation Yrotation Xrotation
							JOINT RightHand
							{
								OFFSET -0.255298 0.007772 -0.005559
								CHANNELS 3 Zrotation Yrotation Xrotation
								End Site
								{
									OFFSET 0.000000 0.000000 0.000000
								}
							}
						}
					}
				}
			}
		}
	}
}
MOTION
Frames: 11
Frame Time: 0.050000
0.000000 0.929908 0.000000 -1.722231 -10.176088 3.609687 -0.554454 -0.467797 -4.854547 -1.699300 0.239346 13.058691 4.808647 9.827471 -4.923765 0.000000 0.000000 0.000000 -3.540660 2.566656 -26.250796 3.774544 0.952923 31.152024 -3.862408 -7.666698 -4.868976 0.000000 0.000000 0.000000 8.804814 -0.635285 4.512075 -4.568200 1.537837 -24.907233 -3.026454 4.192349 30.086101 10.453071 -3.882796 -32.414200 0.000000 0.000000 0.000000 -12.889126 -11.489439 5.534785 -73.716231 -23.303957 4.530221 -159.841460 -68.555484 166.912736 0.000000 0.000000 0.000000 18.523152 -1.506644 -2.416983 82.131549 10.590386 -3.341861 116.050089 50.873236 83.554483 0.000000 0.000000 0.000000 
-0.009823 0.928312 0.021380 -2.839763 -10.721908 4.884558 0.888084 -0.212547 -2.386250 -2.289733 0.348395 10.150165 4.784877 9.759268 -6.062495 0.000000 0.000000 0.000000 -4.092157 2.766141 -28.324929 4.384869 0.329801 23.775504 -4.782252 -10.405223 -4.512243 0.000000 0.000000 0.000000 9.771731 -0.666707 4.160660 -2.925468 1.149991 -25.699771 -4.833420 2.336817 29.684793 8.935914 -3.497947 -31.802527 0.000000 0.000000 0.000000 -11.791442 -11.041173 5.546788 -74.511360 -24.947735 6.449447 -168.431698 -69.000984 -179.465602 0.000000 0.000000 0.000000 17.073279 -0.542206 -2.321651 81.836905 8.789522 -5.154434 118.347087 48.015083 80.453366 0.000000 0.000000 0.000000 
-0.021885 0.923064 0.044584 -2.314330 -11.632015 5.120631 1.077062 -0.036731 -0.337317 -1.886553 0.260458 8.887094 4.848369 10.094312 -5.874122 0.000000 0.000000 0.000000 -3.962183 2.867488 -28.455009 2.573575 0.491350 17.332316 -2.914346 -5.775904 -3.227626 0.000000 0.000000 0.000000 9.262972 -0.579353 3.591498 -2.038030 0.894684 -24.214481 -6.038393 2.537974 27.975662 9.374723 -3.385667 -33.891190 0.000000 0.000000 0.000000 -12.697996 -13.354032 6.800144 -77.214516 -29.751491 11.030817 178.497969 -70.594425 -160.862808 0.000000 0.000000 0.000000 18.459262 0.426240 -2.134769 78.760757 8.180003 -5.317460 120.568152 48.924094 83.253014 0.000000 0.000000 0.000000 
-0.036592 0.915184 0.070149 -2.602603 -12.318054 5.633188 1.395096 0.070131 0.895285 -1.267679 0.158370 10.431827 4.540420 9.164472 -8.889619 0.000000 0.000000 0.000000 -2.606349 3.307912 -29.318765 2.847841 0.378543 16.012107 -2.619492 -4.119794 -4.481682 0.000000 0.000000 0.000000 10.310444 -0.681639 4.055479 -2.177765 0.957653 -25.612378 -7.217899 2.486927 27.674415 8.791798 -3.107246 -34.196356 0.000000 0.000000 0.000000 -12.168078 -15.055241 7.617004 -79.977701 -31.910326 13.919091 173.088172 -70.675374 -152.938398 0.000000 0.000000 0.000000 19.435131 -0.112810 -2.735532 78.788672 8.223913 -5.270701 122.556117 47.346686 83.011224 0.000000 0.000000 0.000000 
-0.054317 0.908547 0.098761 -2.953185 -12.908583 5.806216 1.952819 0.247397 2.960061 -0.600445 0.031552 11.606358 4.248660 8.370352 -10.244470 0.000000 0.000000 0.000000 -1.664073 3.684858 -30.180471 2.703272 0.565477 18.170614 -2.324167 -4.225655 -3.055185 0.000000 0.000000 0.000000 10.277324 -0.653945 3.868696 -1.784837 0.852237 -25.367468 -7.959243 1.199575 27.055715 8.679102 -3.290664 -34.160842 0.000000 0.000000 0.000000 -12.947789 -16.071957 8.558046 -80.871857 -35.668085 17.841755 164.941968 -70.989203 -141.128756 0.000000 0.000000 0.000000 19.319828 1.925817 -2.096306 77.299057 9.803086 -4.145452 124.243568 50.686895 88.096741 0.000000 0.000000 0.000000 
-0.075360 0.902718 0.130541 -3.682429 -13.789565 6.023806 3.428249 0.293387 3.822535 -0.464611 0.095571 15.351048 4.239522 8.219437 -12.794811 0.000000 0.000000 0.000000 -0.581772 4.109035 -30.868157 2.882706 0.876034 22.530961 -2.437877 -4.311772 -3.401443 0.000000 0.000000 0.000000 10.378542 -0.671822 4.023049 -1.139073 0.751692 -26.555513 -7.656652 1.228408 27.141617 8.215709 -2.976794 -35.238063 0.000000 0.000000 0.000000 -13.226301 -16.835137 9.140714 -82.033926 -38.720519 21.178359 159.078799 -71.033521 -132.839922 0.000000 0.000000 0.000000 19.374601 2.659190 -1.893893 77.146676 10.705255 -3.526443 128.252669 51.385180 93.758301 0.000000 0.000000 0.000000 
-0.098780 0.900199 0.164176 -4.569734 -14.418546 6.229024 4.922867 0.236459 3.319702 0.780676 -0.074065 21.132891 3.717637 7.052671 -10.000604 0.000000 0.000000 0.000000 0.545593 4.268456 -30.130943 3.491592 0.983761 25.439070 -2.373463 -3.584256 -4.155787 0.000000 0.000000 0.000000 10.793449 -0.551188 3.006727 -0.925081 0.637460 -25.503361 -7.771784 -0.005664 25.877086 7.654439 -2.999742 -34.411189 0.000000 0.000000 0.000000 -13.351467 -16.729151 9.384767 -82.619442 -42.269726 25.167826 149.348594 -71.575554 -120.493968 0.000000 0.000000 0.000000 19.517723 4.688184 -1.312225 77.811000 12.825105 -1.943979 128.467003 54.731896 96.939597 0.000000 0.000000 0.000000 
-0.121977 0.901375 0.197077 -6.157157 -15.659978 6.594922 6.499816 0.156919 1.571775 1.173374 0.294920 29.216245 4.085981 8.531483 -5.084986 0.000000 0.000000 0.000000 3.470892 4.450266 -27.642082 2.736098 1.461446 26.744154 -2.553591 -2.183230 -6.491962 0.000000 0.000000 0.000000 12.118007 -0.447318 2.182603 -0.761008 0.545317 -24.899842 -7.121798 1.517203 24.967304 7.300802 -2.793944 -33.685370 0.000000 0.000000 0.000000 -12.652663 -17.657787 9.512611 -83.336317 -44.183403 27.355184 142.814331 -70.192584 -111.774900 0.000000 0.000000 0.000000 20.095832 6.219649 -0.383369 76.986858 16.000717 0.613586 129.375733 59.865092 104.762588 0.000000 0.000000 0.000000 
-0.142957 0.902806 0.226688 -6.773268 -14.928466 5.807871 7.851240 0.046357 -3.525554 2.379225 0.561126 43.037603 3.811864 8.539591 2.530266 0.000000 0.000000 0.000000 5.078306 3.938547 -24.037103 2.737525 1.436673 26.919707 -2.829174 -1.611810 -8.252811 0.000000 0.000000 0.000000 12.455253 -0.524077 2.806644 -0.623213 0.601806 -26.374793 -6.016745 2.726047 26.581339 6.412454 -1.957082 -35.532574 0.000000 0.000000 0.000000 -14.483676 -17.794101 9.699508 -80.202055 -45.232460 25.864285 132.353173 -71.783722 -101.697087 0.000000 0.000000 0.000000 19.188242 7.421556 0.913479 77.807328 21.581329 4.701486 127.647435 66.630601 111.932766 0.000000 0.000000 0.000000 
-0.160399 0.904502 0.252074 -7.017101 -15.217467 4.976943 7.983061 0.053739 -10.481893 2.929710 1.239845 54.940921 4.352348 10.086730 6.411304 0.000000 0.000000 0.000000 6.936769 3.629817 -21.177319 2.354245 1.635948 27.329916 -3.049810 -0.745367 -9.937023 0.000000 0.000000 0.000000 12.615671 -0.718357 4.362214 -0.999948 0.746093 -27.674471 -4.699291 5.165694 26.632881 7.783021 -2.488243 -33.950545 0.000000 0.000000 0.000000 -14.152004 -18.017723 9.238478 -79.287268 -45.173163 24.894467 123.160907 -73.644902 -94.770834 0.000000 0.000000 0.000000 19.099867 8.459440 2.131313 78.215305 28.143251 10.093075 127.135343 74.752144 120.990217 0.000000 0.000000 0.000000 
-0.174601 0.903790 0.275168 -6.305232 -15.002969 4.290291 7.236708 0.069919 -18.398594 2.770036 1.741316 62.340384 5.563674 12.001586 3.528526 0.000000 0.000000 0.000000 7.167864 3.087226 -18.595231 1.929658 1.784472 27.528480 -3.846736 -1.526252 -12.077683 0.000000 0.000000 0.000000 12.309600 -0.860996 5.569391 -2.228046 1.035833 -28.414554 -3.188535 7.714806 27.435445 7.516790 -1.893396 -34.586084 0.000000 0.000000 0.000000 -15.129197 -18.208877 8.941117 -75.711892 -43.003171 20.626417 115.647784 -75.341608 -89.892473 0.000000 0.000000 0.000000 18.905979 9.746943 3.601378 80.072734 35.656856 17.079431 130.915191 81.978238 133.378832 0.000000 0.000000 0.000000 
